<svg id="color_line" height="512" viewBox="0 0 74 74" width="512" xmlns="http://www.w3.org/2000/svg" data-name="color line"><path d="m25.8 16.678a.5.5 0 0 1 -.454-.29c-2.827-6.085-7.664-6.011-7.858-6a.466.466 0 0 1 -.516-.483.5.5 0 0 1 .481-.516c.231-.009 5.683-.126 8.8 6.583a.5.5 0 0 1 -.243.664.5.5 0 0 1 -.21.042z" fill="#323c6b"/><path d="m32.352 14.971a.5.5 0 0 1 -.486-.386 13.2 13.2 0 0 0 -9.221-8.807.5.5 0 0 1 .277-.961 13.951 13.951 0 0 1 9.917 9.541.5.5 0 0 1 -.373.6.483.483 0 0 1 -.114.013z" fill="#21b3a9"/><path d="m17.468 14.065 1.251 2.535 2.797.406-2.024 1.974.478 2.786-2.502-1.316-2.503 1.316.478-2.786-2.024-1.974 2.797-.406z" fill="#fe7058"/><path d="m19.97 22.266a.5.5 0 0 1 -.233-.058l-2.27-1.193-2.267 1.193a.5.5 0 0 1 -.726-.527l.433-2.527-1.836-1.79a.5.5 0 0 1 .277-.853l2.538-.369 1.135-2.3a.52.52 0 0 1 .9 0l1.135 2.3 2.538.369a.5.5 0 0 1 .277.853l-1.836 1.79.433 2.527a.5.5 0 0 1 -.493.584zm-2.5-2.316a.5.5 0 0 1 .233.058l1.605.844-.308-1.788a.5.5 0 0 1 .144-.442l1.3-1.266-1.795-.261a.5.5 0 0 1 -.376-.273l-.8-1.626-.8 1.626a.5.5 0 0 1 -.376.273l-1.795.261 1.3 1.266a.5.5 0 0 1 .144.442l-.306 1.788 1.6-.844a.5.5 0 0 1 .227-.058z" fill="#323c6b"/><circle cx="31.275" cy="21.294" fill="#27ccbc" r="2.84"/><path d="m31.275 24.634a3.34 3.34 0 1 1 3.34-3.34 3.343 3.343 0 0 1 -3.34 3.34zm0-5.68a2.34 2.34 0 1 0 2.34 2.34 2.343 2.343 0 0 0 -2.34-2.34z" fill="#323c6b"/><path d="m3.1 39.832a.5.5 0 0 1 -.44-.732c.108-.2 2.742-4.981 10.1-4.329a.5.5 0 0 1 .454.542.49.49 0 0 1 -.542.454c-6.714-.6-9.1 3.757-9.128 3.8a.5.5 0 0 1 -.444.265z" fill="#21b3a9"/><path d="m1.788 32.935a.5.5 0 0 1 -.347-.86 13.951 13.951 0 0 1 13.221-3.818.5.5 0 0 1 -.291.957 13.188 13.188 0 0 0 -12.237 3.586.5.5 0 0 1 -.346.135z" fill="#fe7058"/><path d="m6.722 41.422 2.821.184 1.751-2.219.697 2.74 2.652.979-2.391 1.509-.111 2.825-2.175-1.807-2.721.767 1.047-2.626z" fill="#27ccbc"/><path d="m12.141 47.94a.5.5 0 0 1 -.32-.115l-1.972-1.639-2.468.7a.5.5 0 0 1 -.6-.667l.949-2.382-1.424-2.137a.5.5 0 0 1 -.017-.528.516.516 0 0 1 .466-.249l2.558.167 1.587-2.013a.5.5 0 0 1 .877.187l.632 2.485 2.406.888a.5.5 0 0 1 .094.892l-2.167 1.371-.1 2.563a.5.5 0 0 1 -.5.48zm-2.175-2.807a.5.5 0 0 1 .32.115l1.4 1.16.072-1.812a.5.5 0 0 1 .232-.4l1.534-.968-1.7-.628a.5.5 0 0 1 -.311-.346l-.447-1.758-1.13 1.42a.508.508 0 0 1 -.425.189l-1.811-.118 1.008 1.513a.5.5 0 0 1 .048.463l-.672 1.686 1.746-.492a.517.517 0 0 1 .136-.024z" fill="#323c6b"/><circle cx="19.887" cy="33.08" fill="#fcd462" r="2.84" transform="matrix(.5 -.866 .866 .5 -18.704 33.762)"/><path d="m19.881 36.419a3.34 3.34 0 1 1 2.9-1.669 3.322 3.322 0 0 1 -2.9 1.669zm.01-5.679a2.339 2.339 0 1 0 1.166.313 2.342 2.342 0 0 0 -1.166-.313z" fill="#323c6b"/><path d="m21.421 67a.5.5 0 0 1 -.421-.237c-.123-.2-2.951-4.859 1.3-10.912a.5.5 0 0 1 .818.575c-3.855 5.489-1.378 9.633-1.271 9.807a.5.5 0 0 1 -.425.764z" fill="#323c6b"/><path d="m14.791 64.687a.5.5 0 0 1 -.485-.38 13.951 13.951 0 0 1 3.3-13.359.5.5 0 0 1 .683.73 13.194 13.194 0 0 0 -3.017 12.389.5.5 0 0 1 -.365.605.512.512 0 0 1 -.116.015z" fill="#fe7058"/><path d="m25.042 64.407 1.57-2.351-1.047-2.626 2.721.766 2.174-1.807.112 2.825 2.391 1.509-2.652.98-.697 2.74-1.751-2.22z" fill="#fe7058"/><path d="m29.614 66.943a.5.5 0 0 1 -.393-.19l-1.588-2.013-2.559.167a.5.5 0 0 1 -.449-.777l1.425-2.13-.95-2.385a.5.5 0 0 1 .6-.667l2.468.7 1.973-1.648a.5.5 0 0 1 .819.365l.1 2.563 2.17 1.372a.5.5 0 0 1 -.094.892l-2.406.888-.63 2.486a.5.5 0 0 1 -.484.377zm-1.751-3.22a.5.5 0 0 1 .393.19l1.124 1.424.447-1.758a.5.5 0 0 1 .311-.346l1.7-.628-1.534-.968a.5.5 0 0 1 -.232-.4l-.072-1.816-1.4 1.16a.509.509 0 0 1 -.456.1l-1.744-.495.672 1.686a.5.5 0 0 1 -.048.463l-1.007 1.508 1.81-.118z" fill="#323c6b"/><circle cx="24.399" cy="48.835" fill="#d5d6db" r="2.84" transform="matrix(.866 -.5 .5 .866 -21.148 18.742)"/><path d="m24.4 52.176a3.361 3.361 0 0 1 -.87-.116 3.315 3.315 0 1 1 .87.116zm0-5.682a2.346 2.346 0 1 0 .609.081 2.361 2.361 0 0 0 -.609-.081z" fill="#323c6b"/><path d="m54.044 64.715c-.729 0-5.77-.236-8.718-6.584a.5.5 0 0 1 .907-.421c2.839 6.113 7.816 6.009 7.856 6a.491.491 0 0 1 .518.481.5.5 0 0 1 -.481.518z" fill="#323c6b"/><path d="m48.792 69.3a.506.506 0 0 1 -.139-.02 13.951 13.951 0 0 1 -9.917-9.541.5.5 0 0 1 .974-.227 13.2 13.2 0 0 0 9.221 8.807.5.5 0 0 1 -.139.98z" fill="#21b3a9"/><path d="m54.107 60.034-1.251-2.535-2.798-.407 2.025-1.973-.478-2.786 2.502 1.315 2.503-1.315-.478 2.786 2.024 1.973-2.797.407z" fill="#e1e6e9"/><path d="m54.107 60.534a.5.5 0 0 1 -.448-.279l-1.135-2.3-2.537-.369a.5.5 0 0 1 -.277-.853l1.836-1.79-.434-2.528a.5.5 0 0 1 .725-.527l2.27 1.193 2.27-1.193a.5.5 0 0 1 .725.527l-.434 2.528 1.836 1.79a.5.5 0 0 1 -.277.853l-2.538.369-1.135 2.3a.5.5 0 0 1 -.447.279zm-2.975-3.791 1.796.257a.5.5 0 0 1 .376.273l.8 1.626.8-1.626a.5.5 0 0 1 .383-.273l1.795-.261-1.3-1.266a.5.5 0 0 1 -.144-.442l.307-1.788-1.606.844a.5.5 0 0 1 -.465 0l-1.606-.844.307 1.788a.5.5 0 0 1 -.144.442z" fill="#323c6b"/><circle cx="40.3" cy="52.804" fill="#27ccbc" r="2.84"/><path d="m40.3 56.145a3.34 3.34 0 1 1 3.34-3.34 3.344 3.344 0 0 1 -3.34 3.34zm0-5.68a2.34 2.34 0 1 0 2.34 2.34 2.343 2.343 0 0 0 -2.34-2.341z" fill="#323c6b"/><path d="m60.172 39.392c-.434 0-.886-.02-1.358-.062a.5.5 0 1 1 .089-1c6.711.6 9.105-3.758 9.128-3.8a.5.5 0 1 1 .884.469c-.102.192-2.407 4.393-8.743 4.393z" fill="#21b3a9"/><path d="m60.06 46.232a11.615 11.615 0 0 1 -3.147-.391.5.5 0 0 1 .291-.957 13.193 13.193 0 0 0 12.237-3.584.5.5 0 1 1 .693.721 14.306 14.306 0 0 1 -10.074 4.211z" fill="#fe7058"/><path d="m64.853 32.676-2.821-.184-1.751 2.22-.697-2.74-2.652-.98 2.39-1.509.112-2.825 2.174 1.807 2.722-.766-1.047 2.626z" fill="#fe7058"/><path d="m60.281 35.212a.5.5 0 0 1 -.484-.377l-.632-2.485-2.405-.888a.5.5 0 0 1 -.094-.892l2.167-1.37.1-2.562a.5.5 0 0 1 .819-.365l1.972 1.639 2.468-.7a.5.5 0 0 1 .6.667l-.949 2.382 1.426 2.139a.5.5 0 0 1 .017.528.5.5 0 0 1 -.466.249l-2.558-.167-1.588 2.013a.5.5 0 0 1 -.393.189zm-2.225-4.337 1.7.628a.5.5 0 0 1 .311.346l.447 1.758 1.124-1.424a.493.493 0 0 1 .425-.189l1.81.118-1.006-1.512a.5.5 0 0 1 -.048-.463l.672-1.686-1.746.492a.5.5 0 0 1 -.456-.1l-1.4-1.16-.067 1.817a.5.5 0 0 1 -.232.4z" fill="#323c6b"/><circle cx="51.688" cy="41.019" fill="#fcd462" r="2.84" transform="matrix(.5 -.866 .866 .5 -9.679 65.272)"/><path d="m51.683 44.36a3.351 3.351 0 1 1 .87-.115 3.322 3.322 0 0 1 -.87.115zm.009-5.683a2.341 2.341 0 0 0 -1.174 4.368 2.34 2.34 0 1 0 1.174-4.368z" fill="#323c6b"/><path d="m48.866 18.46a.5.5 0 0 1 -.409-.788c3.855-5.489 1.378-9.634 1.271-9.808a.5.5 0 0 1 .849-.529c.123.2 2.95 4.859-1.3 10.912a.5.5 0 0 1 -.411.213z" fill="#323c6b"/><path d="m53.624 23.285a.5.5 0 0 1 -.342-.865 13.194 13.194 0 0 0 3.018-12.388.5.5 0 0 1 .971-.24 13.951 13.951 0 0 1 -3.3 13.359.5.5 0 0 1 -.347.134z" fill="#fe7058"/><path d="m46.533 9.691-1.57 2.351 1.047 2.627-2.721-.767-2.175 1.807-.111-2.825-2.391-1.509 2.652-.979.697-2.74 1.751 2.219z" fill="#e1e6e9"/><path d="m41.114 16.209a.5.5 0 0 1 -.5-.48l-.1-2.562-2.169-1.367a.5.5 0 0 1 .094-.892l2.406-.888.632-2.485a.5.5 0 0 1 .877-.187l1.588 2.013 2.558-.169a.5.5 0 0 1 .449.777l-1.424 2.131.949 2.382a.5.5 0 0 1 -.093.52.509.509 0 0 1 -.507.147l-2.468-.7-1.972 1.639a.5.5 0 0 1 -.32.121zm-1.379-4.716 1.534.968a.5.5 0 0 1 .232.4l.072 1.813 1.4-1.16a.506.506 0 0 1 .456-.1l1.746.492-.675-1.678a.5.5 0 0 1 .048-.463l1.007-1.508-1.81.118a.5.5 0 0 1 -.425-.189l-1.12-1.425-.447 1.758a.5.5 0 0 1 -.311.346z" fill="#323c6b"/><circle cx="47.175" cy="25.264" fill="#d5d6db" r="2.84" transform="matrix(.866 -.5 .5 .866 -6.312 26.972)"/><path d="m47.181 28.6a3.339 3.339 0 1 1 1.665-.447 3.322 3.322 0 0 1 -1.665.447zm-.009-5.68a2.34 2.34 0 1 0 1.174 4.366 2.34 2.34 0 0 0 -1.174-4.366z" fill="#323c6b"/><path d="m35.4 37.039a.5.5 0 0 1 -.233-.058l-8.832-4.66a.5.5 0 1 1 .467-.885l7.4 3.9-3.702-7.007a.5.5 0 1 1 .884-.468l4.466 8.444a.5.5 0 0 1 -.442.734z" fill="#fe7058"/><path d="m26.953 42.357a.5.5 0 0 1 -.267-.923l7.08-4.455-7.927-.294a.5.5 0 1 1 .037-1l9.546.354a.5.5 0 0 1 .248.923l-8.452 5.318a.5.5 0 0 1 -.265.077z" fill="#fcd462"/><path d="m39.871 45.483a.5.5 0 0 1 -.442-.266l-4.466-8.444a.5.5 0 0 1 .675-.676l8.831 4.66a.5.5 0 1 1 -.467.885l-7.4-3.9 3.709 7.012a.5.5 0 0 1 -.441.734z" fill="#fcd462"/><path d="m44.95 37.393h-.019l-9.546-.354a.5.5 0 0 1 -.248-.923l8.452-5.316a.5.5 0 0 1 .532.847l-7.079 4.453 7.927.294a.5.5 0 0 1 -.018 1z" fill="#fe7058"/><g fill="#89c5cd"><path d="m35.4 37.039a.5.5 0 0 1 -.5-.481l-.38-9.978a.5.5 0 0 1 1-.038l.38 9.978a.5.5 0 0 1 -.48.519z"/><path d="m35.4 37.039a.5.5 0 0 1 -.423-.766l5.08-8.09a.5.5 0 0 1 .847.532l-5.08 8.09a.5.5 0 0 1 -.424.234z"/><path d="m35.783 47.018a.5.5 0 0 1 -.5-.481l-.318-8.36-4.218 6.723a.5.5 0 0 1 -.847-.532l5.08-8.09a.5.5 0 0 1 .923.247l.38 9.979a.5.5 0 0 1 -.48.519z"/></g></svg>